:FULLY-SPECIFIED
:FORCE-ALL-JOINTS-BE-3DOF
:DEGREES
2446
root 1.19748 14.5221 -23.5436 1067.95 73.5749 -31.0868
lfemur -49.3531 11.6389 -8.51764
ltibia 91.8738 0 0
lfoot -11.3529 24.3683 0
ltoes -5.11473 0 0
rfemur -40.0073 -2.43442 17.9684
rtibia 68.8164 0 0
rfoot -14.7974 -19.4823 0
rtoes -16.5617 0 0
lowerback 17.8496 2.47191 1.77391
upperback -1.27706 3.87109 2.03132
thorax -11.2703 1.78736 0.177351
lowerneck -4.10584 -2.08308 -3.62605
upperneck 4.8664 -2.82758 0.891427
head 3.46882 -1.61625 0.729176
lclavicle 2.24211e-14 -1.67253e-14 0
lhumerus -15.2519 -15.2739 88.7483
lradius 110.533 0 0
lwrist 49.1411 0 0
lhand -26.8775 414.583 0
lfingers 7.12502 0 0
lthumb -0.341649 -636.807 0
rclavicle 2.24211e-14 -1.67253e-14 0
rhumerus -27.5327 34.9405 -89.3859
rradius 111.094 0 0
rwrist -29.4265 0 0
rhand -9.4668 -385.675 0
rfingers 7.12502 0 0
rthumb 16.4506 305.892 0
2447
root 1.23585 14.5121 -23.5404 1067.26 74.0482 -31.4833
lfemur -49.2349 11.5343 -8.57421
ltibia 91.8955 0 0
lfoot -11.5196 24.4231 0
ltoes -5.46083 0 0
rfemur -40.1724 -2.59687 17.8121
rtibia 68.6679 0 0
rfoot -14.5471 -19.2107 0
rtoes -16.3043 0 0
lowerback 17.8442 2.43467 1.72462
upperback -1.26893 3.81337 2.04701
thorax -11.2582 1.76363 0.238046
lowerneck -3.99434 -2.24292 -3.76621
upperneck 4.80737 -3.05183 1.05527
head 3.45643 -1.72821 0.793961
lclavicle 2.22975e-14 -1.67139e-14 0
lhumerus -15.7956 -15.6195 89.1293
lradius 110.488 0 0
lwrist 49.6183 0 0
lhand -26.4782 414.475 0
lfingers 7.12502 0 0
lthumb 0.042772 -636.936 0
rclavicle 2.22975e-14 -1.67139e-14 0
rhumerus -27.174 34.3218 -89.0723
rradius 110.724 0 0
rwrist -28.9102 0 0
rhand -9.79459 -385.912 0
rfingers 7.12502 0 0
rthumb 16.1347 305.641 0
2448
root 1.27435 14.502 -23.5371 1066.55 74.5197 -31.8755
lfemur -49.1138 11.4289 -8.63128
ltibia 91.9152 0 0
lfoot -11.6877 24.4786 0
ltoes -5.81058 0 0
rfemur -40.3396 -2.76106 17.6548
rtibia 68.519 0 0
rfoot -14.2953 -18.9363 0
rtoes -16.0445 0 0
lowerback 17.8385 2.39723 1.67451
upperback -1.26078 3.75526 2.06267
thorax -11.246 1.73975 0.299281
lowerneck -3.88205 -2.40391 -3.90744
upperneck 4.74799 -3.2777 1.22034
head 3.44394 -1.84097 0.859228
lclavicle 2.21706e-14 -1.67019e-14 0
lhumerus -16.3435 -15.9674 89.5127
lradius 110.442 0 0
lwrist 50.0984 0 0
lhand -26.0764 414.366 0
lfingers 7.12502 0 0
lthumb 0.429479 -637.065 0
rclavicle 2.21706e-14 -1.67019e-14 0
rhumerus -26.8103 33.6984 -88.7556
rradius 110.348 0 0
rwrist -28.3888 0 0
rhand -10.1245 -386.151 0
rfingers 7.12502 0 0
rthumb 15.8168 305.387 0
2449
root 1.31297 14.4919 -23.5336 1065.84 74.9891 -32.2635
lfemur -48.9898 11.3227 -8.68883
ltibia 91.9327 0 0
lfoot -11.857 24.5346 0
ltoes -6.16386 0 0
rfemur -40.5088 -2.92693 17.4965
rtibia 68.3696 0 0
rfoot -14.042 -18.6592 0
rtoes -15.7825 0 0
lowerback 17.8325 2.35961 1.62361
upperback -1.25261 3.69677 2.0783
thorax -11.2336 1.71574 0.361035
lowerneck -3.76902 -2.56599 -4.04967
upperneck 4.68828 -3.5051 1.38658
head 3.43135 -1.95449 0.924956
lclavicle 2.20407e-14 -1.66891e-14 0
lhumerus -16.8953 -16.3174 89.8982
lradius 110.396 0 0
lwrist 50.5811 0 0
lhand -25.6724 414.256 0
lfingers 7.12502 0 0
lthumb 0.818364 -637.195 0
rclavicle 2.20407e-14 -1.66891e-14 0
rhumerus -26.4419 33.0705 -88.4359
rradius 109.967 0 0
rwrist -27.8626 0 0
rhand -10.4565 -386.392 0
rfingers 7.12502 0 0
rthumb 15.4969 305.131 0
2450
root 1.35171 14.4817 -23.5299 1065.12 75.4564 -32.6473
lfemur -48.863 11.2158 -8.74685
ltibia 91.9482 0 0
lfoot -12.0276 24.5912 0
ltoes -6.52056 0 0
rfemur -40.68 -3.09444 17.3374
rtibia 68.2197 0 0
rfoot -13.7873 -18.3795 0
rtoes -15.5184 0 0
lowerback 17.8263 2.32182 1.57195
upperback -1.24442 3.63791 2.09389
thorax -11.2211 1.69159 0.42329
lowerneck -3.65526 -2.72911 -4.19286
upperneck 4.62825 -3.73395 1.55393
head 3.41866 -2.06872 0.991124
lclavicle 2.19077e-14 -1.66757e-14 0
lhumerus -17.4509 -16.6695 90.2857
lradius 110.35 0 0
lwrist 51.0662 0 0
lhand -25.2663 414.145 0
lfingers 7.12502 0 0
lthumb 1.20932 -637.326 0
rclavicle 2.19077e-14 -1.66757e-14 0
rhumerus -26.0688 32.4384 -88.1133
rradius 109.58 0 0
rwrist -27.3316 0 0
rhand -10.7904 -386.634 0
rfingers 7.12502 0 0
rthumb 15.1751 304.874 0
2451
root 1.39055 14.4714 -23.526 1064.39 75.9213 -33.0272
lfemur -48.7335 11.1081 -8.80531
ltibia 91.9618 0 0
lfoot -12.1993 24.6483 0
ltoes -6.88057 0 0
rfemur -40.853 -3.26353 17.1773
rtibia 68.0695 0 0
rfoot -13.5313 -18.0974 0
rtoes -15.2522 0 0
lowerback 17.8198 2.28387 1.51954
upperback -1.23622 3.5787 2.10945
thorax -11.2084 1.66732 0.486024
lowerneck -3.54083 -2.8932 -4.33696
upperneck 4.56792 -3.96416 1.72235
head 3.40588 -2.18363 1.05771
lclavicle 2.17719e-14 -1.66617e-14 0
lhumerus -18.0098 -17.0236 90.6751
lradius 110.302 0 0
lwrist 51.5536 0 0
lhand -24.8581 414.033 0
lfingers 7.12502 0 0
lthumb 1.60223 -637.458 0
rclavicle 2.17719e-14 -1.66617e-14 0
rhumerus -25.6912 31.8023 -87.788
rradius 109.189 0 0
rwrist -26.7961 0 0
rhand -11.1261 -386.879 0
rfingers 7.12502 0 0
rthumb 14.8516 304.614 0
2452
root 1.42949 14.461 -23.5219 1063.65 76.3837 -33.4031
lfemur -48.6013 10.9998 -8.86421
ltibia 91.9733 0 0
lfoot -12.3721 24.7058 0
ltoes -7.24376 0 0
rfemur -41.0278 -3.43415 17.0165
rtibia 67.919 0 0
rfoot -13.274 -17.8129 0
rtoes -14.9841 0 0
lowerback 17.8131 2.24577 1.46641
upperback -1.228 3.51917 2.12497
thorax -11.1956 1.64293 0.549217
lowerneck -3.42575 -3.05821 -4.48194
upperneck 4.50731 -4.19567 1.89178
head 3.39301 -2.29917 1.1247
lclavicle 2.16332e-14 -1.66469e-14 0
lhumerus -18.5719 -17.3795 91.0662
lradius 110.255 0 0
lwrist 52.043 0 0
lhand -24.448 413.921 0
lfingers 7.12502 0 0
lthumb 1.997 -637.59 0
rclavicle 2.16332e-14 -1.66469e-14 0
rhumerus -25.3093 31.1624 -87.46
rradius 108.793 0 0
rwrist -26.2562 0 0
rhand -11.4636 -387.124 0
rfingers 7.12502 0 0
rthumb 14.5265 304.353 0
2453
root 1.4685 14.4506 -23.5176 1062.91 76.8436 -33.7751
lfemur -48.4667 10.8909 -8.92352
ltibia 91.983 0 0
lfoot -12.5459 24.7639 0
ltoes -7.61004 0 0
rfemur -41.2044 -3.60625 16.855
rtibia 67.7681 0 0
rfoot -13.0156 -17.5261 0
rtoes -14.7141 0 0
lowerback 17.8061 2.20752 1.41258
upperback -1.21977 3.45933 2.14045
thorax -11.1827 1.61843 0.61285
lowerneck -3.31006 -3.22408 -4.62773
upperneck 4.44643 -4.42838 2.06217
head 3.38005 -2.41531 1.19206
lclavicle 2.14918e-14 -1.66314e-14 0
lhumerus -19.137 -17.7373 91.4588
lradius 110.207 0 0
lwrist 52.5343 0 0
lhand -24.0361 413.808 0
lfingers 7.12502 0 0
lthumb 2.39352 -637.724 0
rclavicle 2.14918e-14 -1.66314e-14 0
rhumerus -24.9231 30.519 -87.1294
rradius 108.392 0 0
rwrist -25.7122 0 0
rhand -11.8027 -387.372 0
rfingers 7.12502 0 0
rthumb 14.1997 304.09 0
2454
root 1.50759 14.4401 -23.5132 1062.16 77.3006 -34.1434
lfemur -48.3295 10.7813 -8.98323
ltibia 91.9908 0 0
lfoot -12.7207 24.8223 0
ltoes -7.97927 0 0
rfemur -41.3826 -3.77976 16.6928
rtibia 67.617 0 0
rfoot -12.7561 -17.2372 0
rtoes -14.4423 0 0
lowerback 17.7989 2.16915 1.35808
upperback -1.21152 3.3992 2.15589
thorax -11.1696 1.59382 0.676901
lowerneck -3.1938 -3.39075 -4.7743
upperneck 4.3853 -4.66221 2.23346
head 3.36701 -2.53201 1.25978
lclavicle 2.13478e-14 -1.66152e-14 0
lhumerus -19.7047 -18.0968 91.8529
lradius 110.158 0 0
lwrist 53.0273 0 0
lhand -23.6225 413.694 0
lfingers 7.12502 0 0
lthumb 2.79167 -637.858 0
rclavicle 2.13478e-14 -1.66152e-14 0
rhumerus -24.5329 29.8722 -86.7964
rradius 107.987 0 0
rwrist -25.1642 0 0
rhand -12.1433 -387.621 0
rfingers 7.12502 0 0
rthumb 13.8715 303.826 0
